PathFileType	4	(X/Y/Z)	Patient4_TMGait_0pt7_02_right_50.trc.trc
DataRate	CameraRate	NumFrames	NumMarkers	Units	OrigDataRate	OrigDataStartFrame	OrigNumFrames
83.333333333333	83.333333333333	4	33	mm	83.333333333333	106	       141
Frame#	Time	Sacral			L.Shoulder			Chest			R.Shoulder			Neck			R.ASIS			L.ASIS			R.Thigh.Superior			R.Thigh.Lateral			R.Thigh.Inferior			R.Patella			L.Thigh.Superior			L.Thigh.Lateral			L.Thigh.Inferior			L.Patella			L.Shank.Superior			L.Shank.Lateral			L.Shank.Inferior			R.Shank.Superior			R.Shank.Lateral			R.Shank.Inferior			R.Heel			R.Midfoot.Superior			R.Midfoot.Lateral			R.Toe			L.Heel			L.Midfoot.Lateral			L.Midfoot.Superior			L.Toe			L.Elbow			L.Wrist			R.Elbow			R.Wrist			
		X1	Y1	Z1	X2	Y2	Z2	X3	Y3	Z3	X4	Y4	Z4	X5	Y5	Z5	X6	Y6	Z6	X7	Y7	Z7	X8	Y8	Z8	X9	Y9	Z9	X10	Y10	Z10	X11	Y11	Z11	X12	Y12	Z12	X13	Y13	Z13	X14	Y14	Z14	X15	Y15	Z15	X16	Y16	Z16	X17	Y17	Z17	X18	Y18	Z18	X19	Y19	Z19	X20	Y20	Z20	X21	Y21	Z21	X22	Y22	Z22	X23	Y23	Z23	X24	Y24	Z24	X25	Y25	Z25	X26	Y26	Z26	X27	Y27	Z27	X28	Y28	Z28	X29	Y29	Z29	X30	Y30	Z30	X31	Y31	Z31	X32	Y32	Z32	X33	Y33	Z33	

106	57.920000000000	754.012008359657	1016.359414288626	429.754875709077	965.187019781161	1428.766108959778	246.964525044208	1057.349833263153	1355.964482648314	413.989098954008	974.307680194154	1441.658461482696	582.497024256954	964.983654356703	1494.666978982518	399.325022359667	972.339952053241	944.385940011865	558.725119876325	974.129246799923	963.593263915865	283.938861790909	1064.195260925599	792.385396180321	535.053510486708	1033.415336135325	669.626470678272	611.344986313132	1131.212885561183	637.985850769755	538.168535794964	1159.740217483130	525.342242569897	562.870736416448	1006.939421343157	749.120219499252	309.771398251156	908.801573873380	640.092813810062	251.787639067313	986.031921505379	556.613046622647	315.322810730111	980.844997148825	489.011135725709	326.629185111821	954.829792619207	419.451657728855	318.709431758727	864.617582539793	304.620876243911	268.436246498955	915.796656869849	195.139809259173	343.694625523889	1086.830261373947	445.529145212375	566.654931938846	964.797467248040	399.927589550269	621.155898078278	958.440569574010	289.973008844428	572.557321465244	762.879963143391	224.454815615338	537.387201294106	930.111130798423	162.980390880837	581.726061829178	818.830104994951	160.655994113142	609.515254524172	992.486544325121	48.324428555634	603.163535906261	787.032790357769	38.885670042670	388.824476493585	862.944073720329	34.939804186359	309.340557194904	945.110413982521	96.370259616007	336.981676844518	1074.511889189236	44.487683476676	312.990441217530	1007.623818079315	1089.645276357746	113.033451044100	1217.972532658837	935.249794577354	134.144893174944	883.275665376713	1104.487640113024	700.390767400387	944.026824661401	850.024783992279	713.007261142053	
107	57.932000000000	753.089729704857	1016.596999687635	429.354398167359	966.178596084608	1428.843587788178	247.218742457414	1057.134275522193	1355.699639897114	414.706138643401	973.413677082735	1441.479001257926	582.737527285512	964.951068319027	1494.616815728849	399.546551462482	971.083911182712	944.558177545216	558.993031121052	973.585689751024	963.705598374950	284.113991906187	1064.196139405446	794.852932721728	535.166864252330	1035.410120965336	671.773156096181	611.807002515086	1133.336700027485	641.284824624538	538.504765003326	1164.004323165323	530.078167646606	563.389018330030	1003.427351507009	748.094205654938	310.466348629784	903.836801278358	640.309676610172	251.659445333537	979.417399567496	555.806534108670	315.298568940811	973.248866278267	488.485882096804	326.533401961501	947.212359057047	419.322226286732	318.503709507719	856.612894733961	304.769123316436	268.234981759595	907.543079366015	195.154197955470	343.554393286280	1094.524516858665	447.991797653411	567.556674373194	975.420825924302	396.693769260855	623.194091718160	973.859389509196	286.445544660917	574.738649831288	781.293831740829	211.523789865655	541.431636890654	951.908668540396	158.441712646596	584.675822747353	840.911077939118	150.666821592791	613.149174772050	1019.802407842198	46.701871736166	605.539491710493	778.546633802114	38.928138160664	388.781950276097	854.481886681728	34.917241737734	309.333092845264	936.664964975813	96.372794404042	336.914726565539	1066.050282721562	44.468860993200	312.988777351068	1014.895480279109	1092.315991476718	111.150483184503	1231.956544900967	948.249297765981	134.929422263413	875.682228915574	1106.674593373709	701.223118967160	916.044251069422	848.000844971414	720.080798125093	
108	57.944000000000	752.318915608364	1016.737168735933	429.139867213600	967.165229004510	1428.848467889184	247.685746110481	1057.016510448675	1355.333369208874	415.561560972388	972.687413679230	1441.146978236245	583.180949836200	965.001652110519	1494.452279284455	400.003561471231	970.005681183305	944.539966587516	559.292910339167	973.106698980190	963.718789197891	284.347563334574	1063.951077056145	796.651998304809	535.255061293455	1036.798031958449	673.328959796893	612.271544746549	1134.663541991904	643.689138982710	538.787171335680	1167.205029155010	534.140629551834	563.845867117002	999.964862164939	746.999618778740	311.195462685087	898.851360989269	640.512408887751	251.561823062079	972.734797934753	554.986837307810	315.292550763801	965.614914916781	487.967683722678	326.417961251633	939.539906891835	419.206270843183	318.307484625019	848.582939604677	304.915538980355	268.037157930458	899.266735701794	195.173823001478	343.427067983441	1101.487217402022	449.954257943174	568.490560568227	985.947157486416	392.721886437598	625.462532703036	989.556103816700	282.434094923994	577.167940237560	800.870779882989	197.593509699322	545.897314086783	974.521373939936	153.630439697993	587.962797273842	864.182721719732	140.165447696916	617.218041546582	1048.098059553484	45.362795114913	608.381590265015	770.069520804581	38.977039262609	388.738373591001	846.013278259235	34.895153724315	309.331434921998	928.217398859250	96.377949212348	336.853352426206	1057.582200671691	44.457580956277	312.990364563508	1021.580563077283	1095.001982800349	109.475635769750	1244.762019892817	961.579909420622	136.067791770009	867.600137461836	1109.271783071766	702.375022770777	889.044915904409	848.414567842174	726.572804211849	
109	57.956000000000	751.714247878851	1016.763653075434	429.112959280326	968.135401100006	1428.752067725791	248.356225863350	1056.993816183682	1354.857348360015	416.552011955222	972.121604725006	1440.672743020637	583.818054515842	965.143353911551	1494.156418555877	400.679613674795	969.118456037436	944.316253718627	559.635396778679	972.701630424566	963.625590587339	284.641364820122	1063.445301465622	797.708919150052	535.326358785383	1037.516807177838	674.220697622227	612.744064048915	1135.144116928342	645.104991054645	539.027665190777	1169.298915435695	537.437488410836	564.234890859724	996.581658464875	745.828770404825	311.902868408185	893.855622890730	640.696787649045	251.493154932490	966.025580749736	554.148878055667	315.286733077001	958.001086428846	487.450244500645	326.267150011247	931.844097122134	419.097665625264	318.115608801424	840.544211319305	305.063073773968	267.842684534919	890.981724404814	195.194969090124	343.308456321287	1107.644062628891	451.395337068871	569.454804434524	996.329884825813	388.092100257596	627.930288950005	1005.461152409443	278.076750477664	579.799056093842	821.664191721568	182.890525056523	550.659542862129	997.854695004532	148.753526123283	591.498399635959	888.609556130714	129.407604895553	621.621935500549	1077.211330527841	44.611437483258	611.643127707985	761.601225396113	39.034592262023	388.692221233432	837.537908279081	34.875445138621	309.333470468999	919.768531713848	96.382532860276	336.796253060518	1049.105352992480	44.450079142680	312.993570312701	1027.676965971653	1097.630106729899	108.008572578478	1256.357641251358	975.133153736534	137.534622494241	859.082043900399	1112.314129092744	703.822474573050	863.365096910230	850.911530160541	732.376950279849	
